<svg width="24" height="25" viewBox="0 0 24 25" fill="none" xmlns="http://www.w3.org/2000/svg">
<mask id="mask0_842_12316" style="mask-type:alpha" maskUnits="userSpaceOnUse" x="0" y="0" width="24" height="25">
<path d="M0 0.5H24V24.5H0V0.5Z" fill="#D9D9D9"/>
</mask>
<g mask="url(#mask0_842_12316)">
<path d="M4.85312 25C4.11979 25 3.49479 24.7416 2.97812 24.225C2.46146 23.7083 2.20312 23.0833 2.20312 22.35V8.04995C2.20312 7.31662 2.46146 6.69162 2.97812 6.17495C3.49479 5.65828 4.11979 5.39995 4.85312 5.39995H14.2781L11.6281 8.04995H4.85312V22.35H19.1531V15.575L21.8031 12.925V22.35C21.8031 23.0833 21.5448 23.7083 21.0281 24.225C20.5115 24.7416 19.8865 25 19.1531 25H4.85312ZM15.7531 6.72495L17.6531 8.62495L11.3281 14.9V15.875H12.2781L18.6031 9.57495L20.4531 11.45L14.1781 17.75C13.9281 18 13.6405 18.1916 13.3151 18.325C12.9905 18.4583 12.6531 18.525 12.3031 18.525H10.0031C9.63646 18.525 9.32379 18.3956 9.06512 18.137C8.80713 17.879 8.67812 17.5666 8.67812 17.2V14.9C8.67812 14.55 8.74479 14.2123 8.87812 13.887C9.01146 13.5623 9.20312 13.275 9.45312 13.025L15.7531 6.72495ZM20.4531 11.45L15.7531 6.72495L18.2281 4.24995C18.7615 3.71662 19.3948 3.44995 20.1281 3.44995C20.8615 3.44995 21.4865 3.71662 22.0031 4.24995L22.9531 5.22495C23.4698 5.75828 23.7281 6.38328 23.7281 7.09995C23.7281 7.81662 23.4698 8.43328 22.9531 8.94995L20.4531 11.45Z" fill="white"/>
</g>
</svg>
