<svg width="24" height="24" viewBox="0 0 24 24" fill="none" xmlns="http://www.w3.org/2000/svg">
<mask id="mask0_516_7060" style="mask-type:alpha" maskUnits="userSpaceOnUse" x="0" y="0" width="24" height="24">
<rect width="24" height="24" fill="#D9D9D9"/>
</mask>
<g mask="url(#mask0_516_7060)">
<path d="M12.0002 22.7998C10.5002 22.7998 9.09586 22.5165 7.7872 21.9498C6.4792 21.3831 5.33786 20.6125 4.3632 19.6378C3.38786 18.6625 2.61686 17.5205 2.0502 16.2118C1.48353 14.9038 1.2002 13.4998 1.2002 11.9998C1.2002 10.4998 1.48353 9.09147 2.0502 7.7748C2.61686 6.45814 3.38786 5.31247 4.3632 4.3378C5.33786 3.36247 6.4792 2.59547 7.7872 2.0368C9.09586 1.4788 10.5002 1.1998 12.0002 1.1998C12.7669 1.1998 13.5129 1.2748 14.2382 1.4248C14.9629 1.5748 15.6502 1.79147 16.3002 2.0748C16.1169 2.35814 15.9669 2.65814 15.8502 2.9748C15.7335 3.29147 15.6752 3.63314 15.6752 3.9998C15.6752 4.13314 15.6835 4.26214 15.7002 4.3868C15.7169 4.51214 15.7419 4.64147 15.7752 4.7748C15.2085 4.4748 14.6085 4.24547 13.9752 4.0868C13.3419 3.9288 12.6835 3.8498 12.0002 3.8498C9.73353 3.8498 7.80853 4.64147 6.22519 6.2248C4.64186 7.80814 3.8502 9.73314 3.8502 11.9998C3.8502 14.2665 4.64186 16.1915 6.22519 17.7748C7.80853 19.3581 9.73353 20.1498 12.0002 20.1498C14.2669 20.1498 16.1919 19.3581 17.7752 17.7748C19.3585 16.1915 20.1502 14.2665 20.1502 11.9998C20.1502 11.4665 20.1002 10.9498 20.0002 10.4498C19.9002 9.9498 19.7585 9.46647 19.5752 8.9998C19.7919 9.0998 20.0212 9.17881 20.2632 9.2368C20.5045 9.29547 20.7502 9.3248 21.0002 9.3248C21.2502 9.3248 21.4919 9.2998 21.7252 9.2498C21.9585 9.1998 22.1835 9.1248 22.4002 9.0248C22.5335 9.50814 22.6335 9.9958 22.7002 10.4878C22.7669 10.9791 22.8002 11.4831 22.8002 11.9998C22.8002 13.4998 22.5209 14.9038 21.9622 16.2118C21.4042 17.5205 20.6379 18.6625 19.6632 19.6378C18.6879 20.6125 17.5419 21.3831 16.2252 21.9498C14.9085 22.5165 13.5002 22.7998 12.0002 22.7998ZM15.7002 11.1998C16.2002 11.1998 16.6169 11.0331 16.9502 10.6998C17.2835 10.3665 17.4502 9.9498 17.4502 9.4498C17.4502 8.9498 17.2835 8.53314 16.9502 8.1998C16.6169 7.86647 16.2002 7.6998 15.7002 7.6998C15.2002 7.6998 14.7835 7.86647 14.4502 8.1998C14.1169 8.53314 13.9502 8.9498 13.9502 9.4498C13.9502 9.9498 14.1169 10.3665 14.4502 10.6998C14.7835 11.0331 15.2002 11.1998 15.7002 11.1998ZM8.3002 11.1998C8.8002 11.1998 9.21686 11.0331 9.5502 10.6998C9.88353 10.3665 10.0502 9.9498 10.0502 9.4498C10.0502 8.9498 9.88353 8.53314 9.5502 8.1998C9.21686 7.86647 8.8002 7.6998 8.3002 7.6998C7.8002 7.6998 7.38353 7.86647 7.0502 8.1998C6.71686 8.53314 6.5502 8.9498 6.5502 9.4498C6.5502 9.9498 6.71686 10.3665 7.0502 10.6998C7.38353 11.0331 7.8002 11.1998 8.3002 11.1998ZM12.0002 17.9998C13.3835 17.9998 14.5669 17.6121 15.5502 16.8368C16.5335 16.0621 17.2169 15.1331 17.6002 14.0498H6.4002C6.78353 15.1331 7.46686 16.0621 8.4502 16.8368C9.43353 17.6121 10.6169 17.9998 12.0002 17.9998ZM19.6752 5.3248H19.0002C18.6335 5.3248 18.3209 5.19547 18.0622 4.9368C17.8042 4.6788 17.6752 4.36647 17.6752 3.9998C17.6752 3.63314 17.8042 3.32047 18.0622 3.0618C18.3209 2.8038 18.6335 2.6748 19.0002 2.6748H19.6752V1.9998C19.6752 1.63314 19.8042 1.32047 20.0622 1.0618C20.3209 0.803805 20.6335 0.674805 21.0002 0.674805C21.3669 0.674805 21.6795 0.803805 21.9382 1.0618C22.1962 1.32047 22.3252 1.63314 22.3252 1.9998V2.6748H23.0002C23.3669 2.6748 23.6795 2.8038 23.9382 3.0618C24.1962 3.32047 24.3252 3.63314 24.3252 3.9998C24.3252 4.36647 24.1962 4.6788 23.9382 4.9368C23.6795 5.19547 23.3669 5.3248 23.0002 5.3248H22.3252V5.9998C22.3252 6.36647 22.1962 6.67914 21.9382 6.9378C21.6795 7.1958 21.3669 7.3248 21.0002 7.3248C20.6335 7.3248 20.3209 7.1958 20.0622 6.9378C19.8042 6.67914 19.6752 6.36647 19.6752 5.9998V5.3248Z" fill="#535AF1"/>
</g>
</svg>
